<svg width="272" height="105" viewBox="0 0 272 105" fill="none" xmlns="http://www.w3.org/2000/svg">
<g id="Group 1">
<path id="Vector 2" d="M55.4749 92.6067H35.8532H0.5V11.1212C5.75834 -3.55174 16.5039 2.90076 16.5039 11.1212V64.1903C16.5039 68.4999 16.5039 78.4999 33.139 75.4999V57.7017C29.3154 57.6869 26.1993 57.6444 24.5275 57.5568C19.3341 57.2846 18.5 46.3272 26.6472 46.3272H33.139V28.2769V16.5C34.2593 9.33333 40.9 -3.69999 58.5 1.50001C65 4.0993 68.5 8.12119 68.5 14.6212C51.3 13.1181 48.1732 21.9141 48.7598 26.5V46.3272H55.4749C64.3805 46.3272 62.3724 57.7017 55.4749 57.7017C53.4201 57.7017 53.5047 57.6683 48.7967 57.7017V67.2347V75.4999C63 73.4999 71.448 78.9996 71.448 86.5349C71.448 95.1128 66.5 92.6067 55.4749 92.6067Z" fill="#2B55A3"/>
<g id="LuxFlow" filter="url(#filter0_d_1_13)">
<path d="M81.4034 93V56.6364H85.8068V89.0938H102.71V93H81.4034ZM126.148 81.8494V65.7273H130.338V93H126.148V88.3835H125.864C125.224 89.7685 124.23 90.9463 122.881 91.9169C121.531 92.8757 119.827 93.3551 117.767 93.3551C116.062 93.3551 114.547 92.9822 113.222 92.2365C111.896 91.4789 110.854 90.3426 110.097 88.8274C109.339 87.3004 108.96 85.3769 108.96 83.0568V65.7273H113.151V82.7727C113.151 84.7614 113.707 86.3475 114.82 87.5312C115.944 88.715 117.376 89.3068 119.116 89.3068C120.158 89.3068 121.218 89.0405 122.295 88.5078C123.384 87.9751 124.295 87.1584 125.029 86.0575C125.775 84.9567 126.148 83.554 126.148 81.8494ZM141.138 65.7273L147.672 76.8778L154.206 65.7273H159.036L150.229 79.3636L159.036 93H154.206L147.672 82.4176L141.138 93H136.308L144.973 79.3636L136.308 65.7273H141.138ZM165.583 93V56.6364H187.387V60.5426H169.987V72.8295H185.754V76.7358H169.987V93H165.583ZM198.551 56.6364V93H194.361V56.6364H198.551ZM217.305 93.5682C214.843 93.5682 212.683 92.9822 210.825 91.8104C208.978 90.6385 207.534 88.9991 206.492 86.892C205.462 84.785 204.947 82.3229 204.947 79.5057C204.947 76.6648 205.462 74.1849 206.492 72.0661C207.534 69.9472 208.978 68.3018 210.825 67.13C212.683 65.9581 214.843 65.3722 217.305 65.3722C219.768 65.3722 221.922 65.9581 223.768 67.13C225.627 68.3018 227.071 69.9472 228.101 72.0661C229.143 74.1849 229.663 76.6648 229.663 79.5057C229.663 82.3229 229.143 84.785 228.101 86.892C227.071 88.9991 225.627 90.6385 223.768 91.8104C221.922 92.9822 219.768 93.5682 217.305 93.5682ZM217.305 89.804C219.176 89.804 220.714 89.3246 221.922 88.3658C223.129 87.407 224.023 86.1463 224.603 84.5838C225.183 83.0213 225.473 81.3286 225.473 79.5057C225.473 77.6828 225.183 75.9841 224.603 74.4098C224.023 72.8355 223.129 71.563 221.922 70.5923C220.714 69.6217 219.176 69.1364 217.305 69.1364C215.435 69.1364 213.896 69.6217 212.689 70.5923C211.482 71.563 210.588 72.8355 210.008 74.4098C209.428 75.9841 209.138 77.6828 209.138 79.5057C209.138 81.3286 209.428 83.0213 210.008 84.5838C210.588 86.1463 211.482 87.407 212.689 88.3658C213.896 89.3246 215.435 89.804 217.305 89.804ZM241.311 93L233.001 65.7273H237.405L243.3 86.608H243.584L249.408 65.7273H253.882L259.635 86.5369H259.919L265.814 65.7273H270.217L261.908 93H257.788L251.822 72.0483H251.396L245.43 93H241.311Z" fill="white"/>
</g>
</g>
<defs>
<filter id="filter0_d_1_13" x="77.4034" y="56.6364" width="196.814" height="44.9318" filterUnits="userSpaceOnUse" color-interpolation-filters="sRGB">
<feFlood flood-opacity="0" result="BackgroundImageFix"/>
<feColorMatrix in="SourceAlpha" type="matrix" values="0 0 0 0 0 0 0 0 0 0 0 0 0 0 0 0 0 0 127 0" result="hardAlpha"/>
<feOffset dy="4"/>
<feGaussianBlur stdDeviation="2"/>
<feComposite in2="hardAlpha" operator="out"/>
<feColorMatrix type="matrix" values="0 0 0 0 0 0 0 0 0 0 0 0 0 0 0 0 0 0 0.25 0"/>
<feBlend mode="normal" in2="BackgroundImageFix" result="effect1_dropShadow_1_13"/>
<feBlend mode="normal" in="SourceGraphic" in2="effect1_dropShadow_1_13" result="shape"/>
</filter>
</defs>
</svg>
